<svg xmlns="http://www.w3.org/2000/svg" viewBox="0 0 64 64" role="img" aria-label="Kreisker Kebab">
  <defs>
    <linearGradient id="fav-red" x1="0%" y1="0%" x2="100%" y2="100%">
      <stop offset="0%" stop-color="#8f1122"/>
      <stop offset="100%" stop-color="#cf2737"/>
    </linearGradient>
  </defs>
  <rect width="64" height="64" rx="14" fill="url(#fav-red)"/>
  <g transform="translate(12 8) rotate(-18 20 24)">
    <path d="M13 3c6-4 17-4 24 1 5 4 8 10 7 16l-5 23c-1 6-7 10-13 10H18c-8-1-14-8-13-16l4-21c1-6 5-10 10-13Z" fill="#fff"/>
    <path d="M17 8c5-3 13-3 18 0 4 2 6 7 5 12l-4 20c-1 4-5 7-10 7h-6c-6 0-10-5-9-10l4-19c1-4 3-8 6-10Z" fill="#b51629"/>
    <path d="M19 12c3-4 9-5 15-4 5 1 8 4 9 8l-1 7c-4-3-9-5-15-5-4 1-8 2-11 5v-5c0-3 1-4 3-6Z" fill="#fff"/>
    <path d="M22 16c-3 2-3 6-1 8 2 2 6 2 8 0 2-2 2-5 0-7-2-2-5-2-7-1Zm3 2c1-1 3-1 4 0 1 1 1 3 0 4-1 1-3 1-4 0-1-1-1-3 0-4Z" fill="#b51629"/>
    <path d="M30 16c-3 2-3 6-1 8 2 2 6 2 8 0 2-2 2-5 0-7-2-2-5-2-7-1Zm3 2c1-1 3-1 4 0 1 1 1 3 0 4-1 1-3 1-4 0-1-1-1-3 0-4Z" fill="#b51629"/>
    <rect x="16" y="27" width="15" height="4" rx="2" fill="#fff"/>
    <rect x="15" y="35" width="17" height="4" rx="2" fill="#fff"/>
  </g>
</svg>
