<svg xmlns="http://www.w3.org/2000/svg" viewBox="0 0 480 340" role="img" aria-labelledby="logo-title logo-desc">
  <title id="logo-title">Logo Kreisker Kebab</title>
  <desc id="logo-desc">Logo rouge inspire de l'enseigne avec le mot Kebab, Kreisker, un wrap stylise et la silhouette du Kreisker.</desc>
  <defs>
    <linearGradient id="sign-red" x1="0%" y1="0%" x2="100%" y2="100%">
      <stop offset="0%" stop-color="#8f1122"/>
      <stop offset="52%" stop-color="#b51629"/>
      <stop offset="100%" stop-color="#d42838"/>
    </linearGradient>
    <linearGradient id="sign-shine" x1="0%" y1="0%" x2="100%" y2="100%">
      <stop offset="0%" stop-color="#ffffff" stop-opacity="0.22"/>
      <stop offset="100%" stop-color="#ffffff" stop-opacity="0"/>
    </linearGradient>
    <filter id="soft-shadow" x="-10%" y="-10%" width="120%" height="120%">
      <feDropShadow dx="0" dy="8" stdDeviation="10" flood-color="#5c0b17" flood-opacity="0.28"/>
    </filter>
  </defs>

  <g filter="url(#soft-shadow)">
    <rect x="14" y="14" width="452" height="312" rx="18" fill="url(#sign-red)"/>
    <path d="M22 26c78-28 162-28 256 0 78 24 149 22 186-6v112c-43 27-106 41-188 41-116 0-204-18-254-52Z" fill="url(#sign-shine)"/>
  </g>

  <g fill="#fff">
    <text x="42" y="103" font-family="Segoe Script, Brush Script MT, Lucida Handwriting, cursive" font-size="92" font-weight="700" letter-spacing="-2">Kebab</text>
    <text x="58" y="157" font-family="Arial Black, Arial, sans-serif" font-size="47" font-weight="900" letter-spacing="3">KREISKER</text>
  </g>

  <g transform="translate(56 82)">
    <path d="M24 214h24l8-43 10 43h18l11-63 12 63h14l7-27 6 27h25l12-85 14 85h10l5-18 5 18h18v-68l18-21 19 21v68h14v-28h9l7-73 8 73h10v-15h9v-58l14-22 14 22v58h20v23H24Z" fill="#fff" opacity="0.98"/>
  </g>

  <g transform="translate(96 136) rotate(-17 92 102)">
    <path d="M57 20C79 5 117 7 140 28c16 14 23 35 19 56L138 183c-5 24-28 40-53 38l-26-1c-30-2-52-30-48-60l18-96c3-18 13-34 28-44Z" fill="#fff"/>
    <path d="M68 33c16-11 44-13 62-2 13 8 18 24 15 40l-19 98c-3 17-18 29-35 28l-23-1c-20-1-36-20-33-40l18-93c2-12 7-23 15-30Z" fill="#b51629"/>
    <path d="M73 52c11-13 31-20 51-17 16 2 27 11 30 22l-4 31c-14-13-33-20-55-19-14 1-27 6-38 14l-2-19c-2-4 4-10 18-12Z" fill="#fff"/>
    <path d="M86 73c-9 8-10 21-2 29 7 7 19 7 27 0 8-7 8-18 1-25-7-8-21-8-26 0Zm11 7c4-4 11-4 15 0 4 4 4 9 0 13-3 4-10 4-14 0-4-4-5-9-1-13Z" fill="#b51629"/>
    <path d="M115 72c-10 8-11 21-3 30 8 8 20 8 28 1 8-7 8-19 0-28-7-8-18-9-25-3Zm10 8c4-4 11-4 15 0 4 4 4 10 0 14-3 4-10 4-14 0-4-4-5-10-1-14Z" fill="#b51629"/>
    <rect x="63" y="106" width="58" height="13" rx="6.5" fill="#fff"/>
    <rect x="57" y="137" width="66" height="13" rx="6.5" fill="#fff"/>
    <rect x="52" y="168" width="60" height="13" rx="6.5" fill="#fff"/>
  </g>
</svg>
